PathFileType  4	(X/Y/Z) C:\Users\antoi\Documents\MyRepositories\mobilecap\ResultsAnalysis
DataRate	CameraRate	NumFrames	NumMarkers	Units	OrigDataRate	OrigDataStartFrame	OrigNumFrames
100.0	100.0	7	51	mm	100.0	1	157
Frame#	Time	r_knee			r_shank_antsup			r_ankle			r_calc			r_5meta			r_toe			L_knee			L_shank_antsup			L_ankle			L_calc			L_5meta			L_toe			r_sh2			r_sh3			r_sh4			L_sh2			L_sh3			r_thigh1			r_thigh2			r_thigh3			r_thigh4			r_thigh5			L_thigh1			L_thigh2			L_thigh3			L_thigh4			r.ASIS			r.PSIS			L.ASIS			L.PSIS			C7			R_Shoulder			L_Shoulder			R_Sternum			L_Sternum			R_humerus			R_elbow_med			R_elbow_lat			R_forearm			R_wrist_radius			R_wrist_ulna			L_humerus			L_elbow_med			L_elbow_lat			L_forearm			L_wrist_radius			L_wrist_ulna			R_HJC			L_HJC			R_HJC_reg			L_HJC_reg			
		X1	Y1	Z1	X2	Y2	Z2	X3	Y3	Z3	X4	Y4	Z4	X5	Y5	Z5	X6	Y6	Z6	X7	Y7	Z7	X8	Y8	Z8	X9	Y9	Z9	X10	Y10	Z10	X11	Y11	Z11	X12	Y12	Z12	X13	Y13	Z13	X14	Y14	Z14	X15	Y15	Z15	X16	Y16	Z16	X17	Y17	Z17	X18	Y18	Z18	X19	Y19	Z19	X20	Y20	Z20	X21	Y21	Z21	X22	Y22	Z22	X23	Y23	Z23	X24	Y24	Z24	X25	Y25	Z25	X26	Y26	Z26	X27	Y27	Z27	X28	Y28	Z28	X29	Y29	Z29	X30	Y30	Z30	X31	Y31	Z31	X32	Y32	Z32	X33	Y33	Z33	X34	Y34	Z34	X35	Y35	Z35	X36	Y36	Z36	X37	Y37	Z37	X38	Y38	Z38	X39	Y39	Z39	X40	Y40	Z40	X41	Y41	Z41	X42	Y42	Z42	X43	Y43	Z43	X44	Y44	Z44	X45	Y45	Z45	X46	Y46	Z46	X47	Y47	Z47	X48	Y48	Z48	X49	Y49	Z49	X50	Y50	Z50	X51	Y51	Z51	

1	0.00000000	44.08088	484.30882	-79.69203	94.86821	455.08899	-85.94826	140.21933	94.08613	-98.13962	100.56458	45.94412	-148.53360	296.15837	80.39910	-57.97040	315.27847	119.30808	-112.80103	-305.52330	460.71514	-388.49049	-322.83601	369.97652	-396.53134	-525.07880	114.47988	-336.13596	-596.59239	91.49944	-282.62030	-424.06887	35.59396	-353.38222	-376.71522	49.55608	-301.16662	127.43113	346.53121	-96.93286	29.23006	432.53511	-46.64644	61.18227	320.98795	-44.34623	-395.51116	422.30051	-405.26129	-459.63054	318.22637	-396.61875	-12.19667	775.75494	-144.87909	45.96845	682.40056	-136.08153	40.33374	658.81256	-70.78004	-66.66712	752.38119	-47.59942	-9.02750	654.88507	-41.88817	-157.59493	753.36503	-416.73008	-200.52840	617.88844	-414.87192	-264.82819	785.58264	-410.70777	-307.82769	657.37612	-388.14981	-59.34017	907.06677	-124.73278	-258.08958	948.57238	-178.65517	-83.07850	893.94816	-362.57947	-267.11885	951.53456	-275.44285	-197.89945	1412.13505	-216.39912	-150.57895	1352.90804	-53.54842	-125.09365	1370.45724	-378.66712	-91.17150	1307.47305	-202.39967	-87.12138	1308.02634	-241.01179	-183.22600	1111.39895	16.07347	-244.67297	1031.64479	-26.12796	-224.68358	1027.84155	30.97671	-175.34506	891.25292	51.07763	-141.46478	791.57536	37.82199	-184.14925	789.40695	64.49059	-108.39628	1148.79863	-481.05385	-153.72664	1035.12861	-454.20406	-127.32616	1048.83274	-506.18272	-16.90015	951.74220	-511.41712	57.21375	875.94803	-482.86676	31.42961	853.03585	-509.65979	-141.94941	828.47033	-149.44918	-174.02877	831.84982	-337.37170	-135.94767	828.33901	-153.11268	-150.61654	833.15191	-310.35259	
2	0.01000000	57.24559	484.21639	-80.13257	108.98956	454.51282	-87.72599	146.42210	92.92200	-98.55980	104.00041	48.22776	-148.66810	301.36399	71.34521	-59.94947	322.20513	109.21226	-114.96092	-293.67514	458.77920	-387.44871	-313.06537	368.48367	-395.98072	-521.92079	118.13616	-336.95585	-594.15856	97.26532	-283.67590	-423.26329	35.41532	-353.58240	-376.31168	48.96181	-301.27204	139.74289	345.36071	-98.39357	43.55632	432.29650	-47.60879	74.47104	320.61763	-44.92623	-384.40534	422.80108	-404.59821	-451.17138	320.40220	-396.40546	2.33532	775.20274	-146.06562	59.60789	681.15484	-138.02729	54.64340	657.87212	-72.55863	-50.73623	752.57981	-48.29366	5.99355	654.48983	-42.89045	-145.01308	750.84636	-415.61716	-188.42357	615.45495	-413.85315	-252.19957	783.25569	-409.18079	-295.15718	655.27963	-386.49464	-45.73409	905.98741	-124.39562	-244.51256	947.86161	-178.43144	-69.61387	891.83248	-361.76344	-253.73257	949.49764	-275.17586	-185.24310	1410.12771	-211.64384	-139.13125	1349.03096	-48.86895	-111.92129	1369.68341	-374.16143	-78.64122	1305.34742	-197.93962	-74.40578	1306.24785	-236.59605	-172.02499	1106.69380	17.88879	-232.43443	1027.15550	-25.89423	-213.36455	1022.94379	31.45211	-164.44968	886.18620	51.23382	-130.40820	786.68411	37.86461	-173.37068	784.23198	63.54047	-96.91595	1148.28989	-477.87293	-143.31416	1034.84562	-451.59621	-117.02458	1048.64979	-503.55718	-8.11211	949.88720	-509.89598	64.90641	872.54182	-482.12616	38.58178	850.50697	-509.24938	-128.46001	827.48834	-148.46842	-160.60425	829.75873	-336.39746	-122.61301	828.53871	-151.54490	-137.56986	831.19534	-308.51229	
3	0.02000000	70.72827	484.44245	-80.56327	123.15609	454.07365	-89.39214	152.19327	91.90586	-98.90278	107.16544	50.35408	-148.75972	306.10371	62.84870	-61.65179	328.56384	99.64067	-116.85786	-281.42719	456.79711	-386.34248	-302.92695	366.98549	-395.43088	-518.46898	122.01453	-337.83063	-591.42143	103.39538	-284.80237	-422.38905	35.26227	-353.77855	-375.85023	48.30221	-301.39797	151.90016	344.29833	-99.72447	57.96449	432.37169	-48.48982	87.53753	320.50906	-45.34121	-372.87154	423.31669	-403.89464	-442.33116	322.67809	-396.16767	16.68669	774.99531	-147.35913	73.21158	680.39280	-140.01885	69.08943	657.48925	-74.38426	-34.86377	753.14423	-48.97319	21.12270	654.59088	-43.87129	-132.27096	748.37023	-414.41536	-176.02813	613.02630	-412.74791	-239.46875	780.90752	-407.65421	-282.30023	653.09895	-384.84304	-32.17973	905.22033	-124.02930	-231.01281	947.28878	-178.34412	-56.09863	889.80134	-360.87403	-240.34556	947.56300	-275.04516	-172.51650	1408.21595	-206.86702	-127.61441	1345.25433	-44.21368	-98.68164	1369.01262	-369.64715	-66.05997	1303.30675	-193.47610	-61.62918	1304.55363	-232.16081	-160.70486	1102.10654	19.70194	-220.10750	1022.79974	-25.63176	-201.93218	1018.17054	31.94374	-153.45200	881.24461	51.38056	-119.27168	781.89712	37.87237	-162.49841	779.19813	62.59904	-85.39322	1147.87359	-474.63936	-132.83725	1034.68359	-448.86220	-106.65268	1048.56078	-500.81991	0.64290	948.07250	-508.33522	72.49805	869.10288	-481.39846	45.60690	847.98314	-508.85018	-115.00289	826.75930	-147.43354	-147.09707	827.73788	-335.37965	-109.29856	828.92278	-149.97965	-124.41589	829.36980	-306.65288	
4	0.03000000	84.70667	485.18689	-80.96672	137.35955	453.85587	-90.84922	157.22609	91.14470	-99.12634	109.85342	52.20776	-148.78360	310.04630	55.35695	-62.90155	333.93607	91.00951	-118.33296	-268.43681	454.73655	-385.13175	-292.11159	365.48714	-394.88377	-514.45228	126.30439	-338.79954	-588.09745	110.20923	-286.05026	-421.38042	35.17180	-353.97181	-375.25458	47.53504	-301.56482	163.76149	343.42147	-100.83056	72.46312	432.97415	-49.21071	100.18287	320.83545	-45.50423	-360.54350	423.86801	-403.11823	-432.77349	325.14326	-395.88874	30.71448	775.38503	-148.79538	86.75952	680.48210	-142.03783	83.75558	658.07746	-76.23748	-19.12237	754.33340	-49.60419	36.41652	655.54082	-44.78995	-119.23723	745.97799	-413.05398	-163.09861	610.61560	-411.49117	-226.54663	778.51977	-406.12967	-269.09110	650.76657	-383.19281	-18.71978	905.00668	-123.59806	-217.65170	946.95909	-178.48693	-42.49225	887.93792	-359.84821	-226.95893	945.82841	-275.15258	-159.67655	1406.48323	-202.06224	-115.97539	1341.66499	-39.61138	-85.31839	1368.53507	-365.11687	-53.39576	1301.42151	-189.00699	-48.75236	1303.01369	-227.69623	-149.16934	1097.74031	21.50998	-207.62624	1018.69283	-25.31771	-190.29038	1013.63044	32.46690	-142.26212	876.53750	51.51458	-107.97805	777.31203	37.82241	-151.45101	774.42706	61.67892	-73.79533	1147.63211	-471.31611	-122.23839	1034.74950	-445.90498	-96.15050	1048.65277	-497.88527	9.33415	946.33954	-506.70325	79.88713	865.62042	-480.69133	52.39964	845.47686	-508.46399	-101.60840	826.47964	-146.30261	-133.44300	825.86019	-334.28403	-96.01826	829.61636	-148.42068	-111.06976	827.79229	-304.76655	
5	0.04000000	99.12588	486.46129	-81.31588	151.50340	453.85849	-92.03688	161.40133	90.67872	-99.23964	111.96269	53.73641	-148.74130	313.06586	49.13808	-63.67070	338.13520	83.56664	-119.37519	-254.46567	452.58930	-383.81867	-280.40972	364.00961	-394.34349	-509.63959	131.13968	-339.87107	-583.93317	117.94448	-287.43045	-420.17672	35.20785	-354.17010	-374.42467	46.66673	-301.78582	175.19753	342.75076	-101.67774	86.95038	434.15181	-49.70336	112.25405	321.62647	-45.43556	-347.16246	424.47984	-402.25410	-422.24094	327.86156	-395.56455	44.34039	776.46226	-150.29540	100.24226	681.57234	-143.96767	98.61874	659.78293	-78.00039	-3.61203	756.21963	-50.12297	51.82565	657.43691	-45.57753	-105.84046	743.71573	-411.49602	-149.48228	608.25353	-410.05630	-213.37773	776.08423	-404.60894	-255.41083	648.24725	-381.53701	-5.39053	905.46624	-123.05925	-204.47079	946.92482	-178.87916	-28.78379	886.32404	-358.64232	-213.58678	944.38272	-275.53442	-146.73179	1404.99613	-197.25290	-104.19693	1338.33214	-35.10203	-71.80577	1368.31878	-360.57264	-40.65440	1299.74353	-184.53950	-35.78081	1301.67895	-223.21357	-137.36709	1093.67863	23.30659	-194.96725	1014.92288	-24.93867	-178.37969	1009.40975	33.03420	-130.81652	872.15166	51.64105	-96.46511	773.01748	37.71117	-140.17241	770.01281	60.80054	-62.11070	1147.63006	-467.89531	-111.48157	1035.12604	-442.68228	-85.48269	1048.99863	-494.71616	17.93070	944.73176	-504.98404	86.97519	862.11903	-480.00465	58.88530	843.01731	-508.07944	-88.31041	826.74954	-145.05425	-119.62160	824.20341	-333.09204	-82.78442	830.65126	-146.87325	-97.49809	826.55652	-302.86161	
6	0.05000000	113.71070	488.09269	-81.58080	165.42120	453.99178	-92.95778	164.77222	90.47967	-99.29696	113.50154	54.94408	-148.65739	315.22590	44.26893	-64.05281	341.19878	77.39010	-120.08791	-239.38048	450.36959	-382.45147	-267.70239	362.58325	-393.81632	-503.84089	136.60275	-341.01533	-578.69829	126.75194	-288.90471	-418.72418	35.47407	-354.38572	-373.24943	45.76499	-302.05638	186.09776	342.23517	-102.30526	101.25242	435.77831	-49.92448	123.68070	322.76562	-45.22939	-332.57302	425.17330	-401.31205	-410.55180	330.86054	-395.20387	57.58066	778.13040	-151.66330	113.65696	683.53828	-145.60204	113.53184	662.41885	-79.47038	11.55320	758.65943	-50.43630	67.17616	660.07685	-46.14082	-92.07182	741.64170	-409.74235	-135.12108	605.99214	-408.46084	-199.94317	773.60947	-403.08845	-241.18988	645.54366	-379.86961	7.78645	906.58588	-122.36971	-191.48093	947.18535	-179.45449	-14.99669	885.03885	-357.23462	-200.25348	943.30069	-276.14332	-133.73718	1403.80630	-192.49481	-92.29764	1335.30855	-30.73659	-58.15089	1368.40658	-356.03192	-27.87374	1298.31112	-180.09528	-22.76182	1300.58588	-218.74772	-125.28748	1089.98488	25.08089	-182.14049	1011.54686	-24.48938	-166.17456	1005.56992	33.65450	-119.07236	868.14829	51.77180	-84.68658	769.08778	37.55418	-128.62456	766.01962	59.99360	-50.33999	1147.91164	-464.39978	-100.55322	1035.86920	-439.21551	-74.63539	1049.65261	-491.33046	26.40726	943.29150	-503.17898	93.68199	858.65251	-479.33043	65.02043	840.65219	-507.67436	-75.13625	827.56451	-143.68693	-105.66127	822.84831	-331.79931	-69.60124	831.97164	-145.34020	-83.72631	825.72988	-300.95473	
7	0.06000000	128.05665	489.79223	-81.74234	178.91634	454.10473	-93.68126	167.49361	90.47196	-99.37555	114.56236	55.86682	-148.56906	316.70101	40.67273	-64.19114	343.31316	72.43262	-120.61060	-223.13749	448.10733	-381.11331	-253.93101	361.23721	-393.30959	-496.90498	142.73899	-342.16751	-572.17572	136.70157	-290.39035	-416.97505	36.11598	-354.62872	-371.63364	44.94913	-302.35107	196.37773	341.76180	-102.81504	115.18154	437.59828	-49.87271	134.48194	324.03600	-44.99092	-316.70405	425.95737	-400.32889	-397.58779	334.12633	-394.82310	70.54319	780.13759	-152.63169	126.99139	686.00389	-146.69780	128.24281	665.49950	-80.41708	26.26072	761.32921	-50.43784	82.18816	663.01004	-46.38155	-77.97717	739.82993	-407.82538	-120.03740	603.90363	-406.76284	-186.26244	771.12667	-401.55415	-226.40722	642.69525	-378.19225	20.80772	908.24375	-121.49868	-178.66307	947.70577	-180.07303	-1.19517	884.15400	-355.62619	-186.99346	942.63662	-276.84984	-120.77537	1402.95571	-187.86973	-80.32765	1332.63769	-26.57215	-44.39498	1368.81732	-351.53363	-15.11217	1297.15930	-175.71510	-9.76983	1299.76716	-214.35497	-112.94967	1086.70712	26.81637	-169.17037	1008.59403	-23.96875	-153.67628	1002.15218	34.33159	-107.00157	864.56894	51.92215	-72.61351	765.58100	37.38028	-116.77824	762.48797	59.29475	-38.48576	1148.50055	-460.87733	-89.46271	1037.00903	-435.58779	-63.61047	1050.64687	-487.79659	34.74973	942.05572	-501.30492	99.96088	855.28926	-478.65527	70.78795	838.44339	-507.22374	-62.10005	828.83597	-142.21281	-91.64069	821.87158	-330.40965	-56.46720	833.47424	-143.81699	-69.83956	825.35279	-299.05745	
